<?xml version="1.0" encoding="UTF-8"?>
<svg id="Layer_1" xmlns="http://www.w3.org/2000/svg" version="1.1" viewBox="0 0 127.8 48">
  <!-- Generator: Adobe Illustrator 30.1.0, SVG Export Plug-In . SVG Version: 2.1.1 Build 136)  -->
  <defs>
    <style>
      .st0 {
        fill: #c0e100;
      }
    </style>
  </defs>
  <path class="st0" d="M24.3,22c-9.3-.3-13.8-5.2-15.9-9-1.9,2.9-3.1,6.1-3.6,9l-4.8-.5V.5h4.8v9.6C7.6,5.3,14.2,0,23.4,0l.3,4.5c-5,0-8.9,1.8-11.9,4.5,1.1,2.6,4.2,7.8,12.7,8.2l-.2,4.8Z"/>
  <path class="st0" d="M26.8.5h4.8v21h-4.8V.5Z"/>
  <path class="st0" d="M60.9.5v21h-5.2l-15.4-14.1v14.1h-5.6V.5h5.2l15.4,14.1V.5h5.6Z"/>
  <path class="st0" d="M63.4,11.7c0-4.4,2.5-11.7,17.3-11.7s8.7.8,13.8,2.4l-1.2,4.3c-4.6-1.5-8.9-2.2-12.6-2.2-8.1,0-12.3,2.6-12.3,7.2s3.2,5.8,8.4,5.8,7.9-1.7,9.3-4.1h-8.1v-4.8h17v13h-4.8v-6.6c-1.7,3.5-5.8,7.1-13.7,7.1s-13.2-5.6-13.2-10.3Z"/>
  <path class="st0" d="M122.7,15.1c0-1.1-3.9-1.7-10.4-2.1-5.8-.4-14.5-.4-14.5-6S108.2,0,112,0c5.9,0,11.6,1,14.4,1.8l-1.4,4.6c-2-.6-7.2-1.6-12.9-1.6s-8.7.5-8.7,1.8,7,1.7,9.5,1.8c10.9.6,15.1,2.1,15.1,6.3s-3.4,7.2-14.9,7.2-14.2-1.2-15.5-1.7l1-4.9s6.5,2.1,14.5,2.1,9.8-1.6,9.8-2.4Z"/>
  <path class="st0" d="M32.5,35.4c1.4,5,.2,12.1.2,12.4l-4.8-.8c0,0,1-6.3,0-10.3-.8-2.8-3.6-6.1-9.2-6.1s-5.5.7-7.9,2.6c1.7,2.6,3.1,5.4,3.1,8,0,4-2.8,6.9-6.7,6.9S.4,45.1.4,40.9s1.4-5.9,3.7-8.5c-1.4-1.7-2.9-3.2-4.1-4.3l3.2-3.5c.5.4,2.4,2.2,4.5,4.7,2.8-2.3,6.3-3.6,11.1-3.6,8.3,0,12.4,5.2,13.6,9.7ZM7.1,43.4c.7,0,1.9-.6,1.9-2.4s-.7-3-1.8-4.7c-1.2,1.6-1.9,3.2-1.9,4.6,0,2.2,1.3,2.5,1.9,2.5Z"/>
  <path class="st0" d="M34.5,41.9c0-3.5,3.5-5.3,6.9-5.3-3.2-.6-5.2-2-5.2-4.5,0-4.5,6-6.1,12.4-6.1s11.8,1.4,14.7,2.2l-1.3,4.3c-2.6-.8-7.5-2-13-2s-7.5.9-7.5,1.9c0,1.8,5.2,2.2,10.1,2.2h7.4v4.5c-.4,0-6.9,0-7.5,0-4.8,0-11.3.3-11.3,2.3s4.2,2.2,8.4,2.2c6.9,0,11.9-1.2,14.6-2.3l1.6,4.1c-4,1.7-10.3,2.7-16.8,2.7s-13.4-.8-13.4-6.1Z"/>
  <path class="st0" d="M93.1,37.2c0,4.9-2.5,10.8-14.4,10.8s-14.4-5.9-14.4-10.8,2.5-10.9,14.4-10.9,14.4,5.9,14.4,10.9ZM78.7,31.4c-7.4,0-8.7,2.3-8.7,5.8s1.2,5.7,8.7,5.7,8.6-2.3,8.6-5.7-1.2-5.8-8.6-5.8Z"/>
  <path class="st0" d="M127.1,35.4c1.4,5,.2,12.1.2,12.4l-4.8-.8c0,0,1-6.3,0-10.3-.8-2.8-3.6-6.1-9.2-6.1s-5.5.7-7.9,2.6c1.7,2.6,3.1,5.4,3.1,8,0,4-2.8,6.9-6.7,6.9s-6.6-2.8-6.6-7,1.4-5.9,3.7-8.5c-1.4-1.7-2.9-3.2-4.1-4.3l3.2-3.5c.5.4,2.4,2.2,4.5,4.7,2.8-2.3,6.3-3.6,11.1-3.6,8.3,0,12.4,5.2,13.6,9.7ZM101.7,43.4c.7,0,1.9-.6,1.9-2.4s-.7-3-1.8-4.7c-1.2,1.6-1.9,3.2-1.9,4.6,0,2.2,1.3,2.5,1.9,2.5Z"/>
</svg>