<?xml version="1.0" encoding="UTF-8"?>
<svg id="Layer_1" xmlns="http://www.w3.org/2000/svg" version="1.1" viewBox="0 0 48 48">
  <!-- Generator: Adobe Illustrator 30.1.0, SVG Export Plug-In . SVG Version: 2.1.1 Build 136)  -->
  <defs>
    <style>
      .st0 {
        fill: #010200;
      }

      .st1 {
        fill: #c0e100;
      }
    </style>
  </defs>
  <rect class="st0" y="0" width="48" height="48" rx="8" ry="8"/>
  <path class="st1" d="M36.9,23c-.5-1.4-1.4-2.5-2.7-3.2-.2-.1-.5-.3-.7-.4-1.5-.6-3.1-.5-4.1-.3-1.1.2-2.1.6-3,1.1-.2.1-.5.3-.7.5-.3-.2-.6-.4-.9-.6-.9-.5-1.9-.8-3-.9-1.8-.2-3.3.2-4,.5-2.7.9-4.2,2.9-4.8,3.6,0,0-.1.2-.2.3,0-1.7,0-3.1,0-4.3h-2.1c0,2.2,0,5.2,0,9.5h1s1.3.2,1.3.2c.1-1,.5-2.5,1.5-4,.3.6.8,1.2,1.4,1.8,1.5,1.4,3.4,2.2,5.8,2.3v-2.1c-3.6-.1-5.1-2.3-5.7-3.7.6-.6,1.5-1.1,2.5-1.5.5-.2,1.7-.5,3.1-.4.8,0,1.5.3,2.1.6.1,0,.3.1.4.2-.8,1-1.4,2.2-1.4,3.5,0,1.3.6,2.5,1.6,3,.4.2.9.3,1.3.3s.9-.1,1.4-.4c1.2-.6,1.8-2,1.6-3.5,0-.3-.1-.7-.3-1-.3-.7-.6-1.4-1.1-2,0,0,.2-.1.3-.2.7-.4,1.5-.7,2.3-.9.8-.1,1.9-.2,3,.2.2,0,.3.1.5.2.8.5,1.4,1.2,1.7,2.1.3.9.4,1.9.3,3.2,0,.5-.1,1-.2,1.6v.2s2.1.3,2.1.3v-.2c.1-.6.2-1.2.2-1.8.1-1.5,0-2.9-.4-4ZM26,26.8c-.3.1-.5.1-.7,0-.4-.2-.5-.7-.5-1,0-.8.4-1.5.8-2.1.3.4.5.8.6,1.2,0,.2.1.4.2.6,0,.2.1,1-.4,1.2Z"/>
</svg>