<?xml version="1.0" encoding="UTF-8"?>
<svg id="Layer_1" xmlns="http://www.w3.org/2000/svg" version="1.1" viewBox="0 0 32 32">
  <!-- Generator: Adobe Illustrator 30.1.0, SVG Export Plug-In . SVG Version: 2.1.1 Build 136)  -->
  <defs>
    <style>
      .st0 {
        fill: #010200;
      }

      .st1 {
        fill: #c0e100;
      }
    </style>
  </defs>
  <rect class="st0" y="0" width="32" height="32" rx="6.7" ry="6.7"/>
  <path class="st1" d="M24.8,5.7c-1.4-.7-2.9-.8-4.4-.4-.3,0-.5.2-.8.3-1.5.7-2.6,1.9-3.3,2.8-.6.9-1.1,2-1.4,3.1,0,.3-.1.6-.2.9-.4,0-.8.1-1.1.2-1,.3-2,.8-2.9,1.5-1.4,1.2-2.2,2.6-2.6,3.3-1.3,2.7-1,5.2-.9,6.2,0,.1,0,.2,0,.4-1.3-1.3-2.3-2.3-3.2-3.2l-1.6,1.6c1.7,1.6,3.8,3.8,7,7.1l.7-.7,1.1-.8c-.7-.9-1.5-2.3-1.9-4.1.7.2,1.5.3,2.4.3,2.2,0,4.2-.9,6-2.6l-1.5-1.6c-2.8,2.7-5.5,2.1-7,1.5,0-.9.2-1.9.8-3,.2-.5.9-1.6,2-2.6.6-.5,1.3-.9,2.1-1.1.2,0,.3,0,.5-.1.1,1.3.6,2.6,1.5,3.6.9,1,2.3,1.4,3.4,1,.5-.2.9-.4,1.3-.7s.6-.8.7-1.3c.4-1.3-.1-2.8-1.4-3.7-.3-.2-.6-.4-1-.6-.7-.3-1.5-.6-2.3-.7,0-.1,0-.2,0-.4.2-.8.5-1.6,1-2.3.5-.7,1.3-1.6,2.3-2.1.2,0,.3-.1.5-.2.9-.3,2-.2,2.8.3.9.4,1.7,1.1,2.6,2.1.4.4.7.9,1,1.3v.2c.1,0,1.9-1.3,1.9-1.3v-.2c-.5-.5-.9-1-1.3-1.5-1.1-1.2-2.1-2.1-3.3-2.6ZM19.6,16.6c0,.3-.2.4-.5.5-.4.1-.8-.1-1.1-.4-.5-.6-.8-1.4-.9-2.2.5,0,.9.2,1.4.4.2.1.4.2.6.3.2.1.8.6.6,1.2Z"/>
</svg>